<svg width="80" height="80" viewBox="0 0 80 80" fill="none" xmlns="http://www.w3.org/2000/svg">
<g filter="url(#filter0_n_168_19)">
<mask id="path-1-inside-1_168_19" fill="white">
<path d="M47.5 25C46.3954 25 45.5 25.8954 45.5 27V33.0625H45.499C45.4995 33.067 45.4996 33.0716 45.5 33.0762V33.834C45.2835 36.3403 43.0163 40 38.2803 40H32.5C31.3954 40 30.5 40.8954 30.5 42V53C30.5 54.1046 31.3954 55 32.5 55H43.5C44.6046 55 45.5 54.1046 45.5 53V44.0781C45.5184 40 47.9574 40 53.374 40L54.1016 40.0205C57.6963 40.0604 60.498 39.3787 60.498 46.9375C60.498 46.98 60.4994 47.0216 60.5 47.0625V53C60.5 54.1046 61.3954 55 62.5 55H73.5C74.6046 55 75.5 54.1046 75.5 53V42C75.5 40.8954 74.6046 40 73.5 40H67.623C62.7627 39.8129 60.6553 39.2551 60.5 33.1182V27C60.5 25.8954 59.6046 25 58.5 25H47.5Z"/>
</mask>
<path d="M47.5 25C46.3954 25 45.5 25.8954 45.5 27V33.0625H45.499C45.4995 33.067 45.4996 33.0716 45.5 33.0762V33.834C45.2835 36.3403 43.0163 40 38.2803 40H32.5C31.3954 40 30.5 40.8954 30.5 42V53C30.5 54.1046 31.3954 55 32.5 55H43.5C44.6046 55 45.5 54.1046 45.5 53V44.0781C45.5184 40 47.9574 40 53.374 40L54.1016 40.0205C57.6963 40.0604 60.498 39.3787 60.498 46.9375C60.498 46.98 60.4994 47.0216 60.5 47.0625V53C60.5 54.1046 61.3954 55 62.5 55H73.5C74.6046 55 75.5 54.1046 75.5 53V42C75.5 40.8954 74.6046 40 73.5 40H67.623C62.7627 39.8129 60.6553 39.2551 60.5 33.1182V27C60.5 25.8954 59.6046 25 58.5 25H47.5Z" fill="#7F22FE"/>
<path d="M45.5 33.0625H46.5V34.0625H45.5V33.0625ZM45.499 33.0625L44.5042 33.1645L44.3912 32.0625H45.499V33.0625ZM45.5 33.0762L46.4952 32.9782L46.5 33.0271V33.0762H45.5ZM45.5 33.834H46.5V33.8771L46.4963 33.92L45.5 33.834ZM30.5 53H29.5V53H30.5ZM45.5 44.0781H44.5L44.5 44.0736L45.5 44.0781ZM53.374 40V39H53.3881L53.4022 39.0004L53.374 40ZM54.1016 40.0205L54.0905 41.0204L54.0819 41.0204L54.0734 41.0201L54.1016 40.0205ZM60.498 46.9375H59.498V46.9375H60.498ZM60.5 47.0625L61.4999 47.0474L61.5 47.0549V47.0625H60.5ZM60.5 53H59.5V53H60.5ZM75.5 42H76.5V42H75.5ZM67.623 40V41H67.6038L67.5846 40.9993L67.623 40ZM60.5 33.1182L59.5003 33.1435L59.5 33.1308V33.1182H60.5ZM60.5 27H61.5V27H60.5ZM47.5 25V26C46.9477 26 46.5 26.4477 46.5 27H45.5H44.5C44.5 25.3431 45.8431 24 47.5 24V25ZM45.5 27H46.5V33.0625H45.5H44.5V27H45.5ZM45.5 33.0625V34.0625H45.499V33.0625V32.0625H45.5V33.0625ZM45.499 33.0625L46.4938 32.9605C46.4954 32.976 46.4964 32.9889 46.497 32.9973C46.4972 33.0015 46.4975 33.0051 46.4976 33.0076C46.4978 33.0099 46.4979 33.0119 46.4979 33.0125C46.498 33.0135 46.4979 33.0128 46.4979 33.012C46.4978 33.011 46.4977 33.0089 46.4975 33.0061C46.4971 33.0007 46.4964 32.9907 46.4952 32.9782L45.5 33.0762L44.5048 33.1742C44.5034 33.1593 44.5025 33.1471 44.5019 33.1394C44.5017 33.1355 44.5015 33.1322 44.5014 33.1301C44.5012 33.1282 44.5011 33.1263 44.5011 33.1262C44.5011 33.1256 44.5012 33.1265 44.5012 33.1277C44.5013 33.129 44.5015 33.1314 44.5017 33.1345C44.5021 33.1406 44.5029 33.1512 44.5042 33.1645L45.499 33.0625ZM45.5 33.0762H46.5V33.834H45.5H44.5V33.0762H45.5ZM45.5 33.834L46.4963 33.92C46.2449 36.8306 43.6412 41 38.2803 41V40V39C42.3914 39 44.3221 35.8501 44.5037 33.7479L45.5 33.834ZM38.2803 40V41H32.5V40V39H38.2803V40ZM32.5 40V41C31.9477 41 31.5 41.4477 31.5 42H30.5H29.5C29.5 40.3431 30.8431 39 32.5 39V40ZM30.5 42H31.5V53H30.5H29.5V42H30.5ZM30.5 53H31.5C31.5 53.5523 31.9477 54 32.5 54V55V56C30.8431 56 29.5 54.6569 29.5 53H30.5ZM32.5 55V54H43.5V55V56H32.5V55ZM43.5 55V54C44.0523 54 44.5 53.5523 44.5 53H45.5H46.5C46.5 54.6569 45.1569 56 43.5 56V55ZM45.5 53H44.5V44.0781H45.5H46.5V53H45.5ZM45.5 44.0781L44.5 44.0736C44.505 42.9693 44.6718 42.0163 45.1005 41.238C45.5465 40.4281 46.2215 39.9054 47.045 39.5798C47.8361 39.267 48.7738 39.1316 49.797 39.0658C50.8265 38.9996 52.0303 39 53.374 39V40V41C52.0095 41 50.8771 41.0004 49.9254 41.0617C48.9672 41.1233 48.2784 41.2428 47.7804 41.4397C47.3147 41.6238 47.038 41.8658 46.8523 42.2029C46.6492 42.5716 46.5042 43.1478 46.5 44.0826L45.5 44.0781ZM53.374 40L53.4022 39.0004L54.1297 39.0209L54.1016 40.0205L54.0734 41.0201L53.3458 40.9996L53.374 40ZM54.1016 40.0205L54.1127 39.0206C54.9344 39.0297 55.8852 38.9951 56.6951 39.0582C57.5373 39.1237 58.4258 39.3008 59.2089 39.8316C60.8178 40.9223 61.498 43.1402 61.498 46.9375H60.498H59.498C59.498 43.1759 58.7774 41.9553 58.0867 41.4871C57.7201 41.2386 57.2341 41.1062 56.5399 41.0521C55.8135 40.9956 55.066 41.0313 54.0905 41.0204L54.1016 40.0205ZM60.498 46.9375H61.498C61.498 46.9718 61.4989 46.9822 61.4999 47.0474L60.5 47.0625L59.5001 47.0776C59.4999 47.061 59.498 46.9881 59.498 46.9375H60.498ZM60.5 47.0625H61.5V53H60.5H59.5V47.0625H60.5ZM60.5 53H61.5C61.5 53.5523 61.9477 54 62.5 54V55V56C60.8431 56 59.5 54.6569 59.5 53H60.5ZM62.5 55V54H73.5V55V56H62.5V55ZM73.5 55V54C74.0523 54 74.5 53.5523 74.5 53H75.5H76.5C76.5 54.6569 75.1569 56 73.5 56V55ZM75.5 53H74.5V42H75.5H76.5V53H75.5ZM75.5 42H74.5C74.5 41.4477 74.0523 41 73.5 41V40V39C75.1569 39 76.5 40.3431 76.5 42H75.5ZM73.5 40V41H67.623V40V39H73.5V40ZM67.623 40L67.5846 40.9993C66.3663 40.9524 65.2547 40.8808 64.2877 40.6899C63.3132 40.4974 62.4172 40.1714 61.6696 39.5689C60.1458 38.3407 59.5791 36.2549 59.5003 33.1435L60.5 33.1182L61.4997 33.0929C61.5762 36.1184 62.1409 37.38 62.9247 38.0117C63.3309 38.3391 63.8827 38.5712 64.6752 38.7278C65.4751 38.8857 66.4496 38.9541 67.6615 39.0007L67.623 40ZM60.5 33.1182H59.5V27H60.5H61.5V33.1182H60.5ZM60.5 27H59.5C59.5 26.4477 59.0523 26 58.5 26V25V24C60.1569 24 61.5 25.3431 61.5 27H60.5ZM58.5 25V26H47.5V25V24H58.5V25Z" fill="#3D3D3D" fill-opacity="0.1" mask="url(#path-1-inside-1_168_19)"/>
<path d="M16.5568 54.5194C16.3754 54.8178 16.0515 55 15.7023 55H6.27809C5.49822 55 5.01849 54.147 5.42357 53.4806L22.4432 25.4806C22.6246 25.1822 22.9485 25 23.2977 25H32.7219C33.5018 25 33.9815 25.853 33.5764 26.5194L16.5568 54.5194Z" fill="#7F22FE"/>
<path d="M15.7021 54.5H6.27832C5.88841 54.5 5.64812 54.0734 5.85059 53.7402L22.8701 25.7402C22.9608 25.591 23.1232 25.5 23.2979 25.5H32.7217C33.1116 25.5 33.3519 25.9266 33.1494 26.2598L16.1299 54.2598C16.0392 54.409 15.8768 54.5 15.7021 54.5Z" stroke="#3D3D3D" stroke-opacity="0.1"/>
</g>
<defs>
<filter id="filter0_n_168_19" x="0" y="0" width="80" height="80" filterUnits="userSpaceOnUse" color-interpolation-filters="sRGB">
<feFlood flood-opacity="0" result="BackgroundImageFix"/>
<feBlend mode="normal" in="SourceGraphic" in2="BackgroundImageFix" result="shape"/>
<feTurbulence type="fractalNoise" baseFrequency="2 2" stitchTiles="stitch" numOctaves="3" result="noise" seed="2259" />
<feColorMatrix in="noise" type="luminanceToAlpha" result="alphaNoise" />
<feComponentTransfer in="alphaNoise" result="coloredNoise1">
<feFuncA type="discrete" tableValues="0 0 0 0 1 1 1 1 1 1 1 1 1 1 1 1 1 1 1 1 1 1 1 1 1 1 1 1 1 1 1 1 1 1 1 1 1 1 1 1 1 1 1 1 1 0 0 0 0 0 0 0 0 0 0 0 0 0 0 0 0 0 0 0 0 0 0 0 0 0 0 0 0 0 0 0 0 0 0 0 0 0 0 0 0 0 0 0 0 0 0 0 0 0 0 0 0 0 0 0 "/>
</feComponentTransfer>
<feComposite operator="in" in2="shape" in="coloredNoise1" result="noise1Clipped" />
<feFlood flood-color="rgba(0, 0, 0, 0.05)" result="color1Flood" />
<feComposite operator="in" in2="noise1Clipped" in="color1Flood" result="color1" />
<feMerge result="effect1_noise_168_19">
<feMergeNode in="shape" />
<feMergeNode in="color1" />
</feMerge>
</filter>
</defs>
</svg>
