<svg width="48" height="48" viewBox="0 0 48 48" fill="none" xmlns="http://www.w3.org/2000/svg">
<g filter="url(#filter0_n_94_18)">
<mask id="path-1-inside-1_94_18" fill="white">
<path d="M29 14C27.8954 14 27 14.8954 27 16V19.375H26.999C26.9995 19.3795 26.9996 19.3841 27 19.3887V19.8818C26.8596 21.5529 25.3486 24 22.1865 24H19C17.8954 24 17 24.8954 17 26V32C17 33.1046 17.8954 34 19 34H25C26.1046 34 27 33.1046 27 32V26.6992C27.0175 24.3396 28.2625 24.0422 30.9824 24.0049L32.249 24H32.25L32.7354 24.0137C35.1319 24.0403 37 23.5857 37 28.625V32C37 33.1046 37.8954 34 39 34H45C46.1046 34 47 33.1046 47 32V26C47 24.8954 46.1046 24 45 24H41.75C38.5 23.8749 37.096 23.5012 37 19.375V16C37 14.8954 36.1046 14 35 14H29Z"/>
</mask>
<path d="M29 14C27.8954 14 27 14.8954 27 16V19.375H26.999C26.9995 19.3795 26.9996 19.3841 27 19.3887V19.8818C26.8596 21.5529 25.3486 24 22.1865 24H19C17.8954 24 17 24.8954 17 26V32C17 33.1046 17.8954 34 19 34H25C26.1046 34 27 33.1046 27 32V26.6992C27.0175 24.3396 28.2625 24.0422 30.9824 24.0049L32.249 24H32.25L32.7354 24.0137C35.1319 24.0403 37 23.5857 37 28.625V32C37 33.1046 37.8954 34 39 34H45C46.1046 34 47 33.1046 47 32V26C47 24.8954 46.1046 24 45 24H41.75C38.5 23.8749 37.096 23.5012 37 19.375V16C37 14.8954 36.1046 14 35 14H29Z" fill="#7F22FE"/>
<path d="M27 19.375H28V20.375H27V19.375ZM26.999 19.375L26.0042 19.477L25.8912 18.375H26.999V19.375ZM27 19.3887L27.9954 19.2927L28 19.3406V19.3887H27ZM27 19.8818H28V19.9238L27.9965 19.9656L27 19.8818ZM22.1865 24V25V25V24ZM17 32H16H17ZM27 26.6992H26L26 26.6918L27 26.6992ZM30.9824 24.0049L30.9687 23.0049L30.9786 23.0049L30.9824 24.0049ZM32.249 24L32.2452 23H32.249V24ZM32.25 24V23H32.2641L32.2782 23.0004L32.25 24ZM32.7354 24.0137L32.7242 25.0136L32.7157 25.0135L32.7072 25.0133L32.7354 24.0137ZM37 28.625L38 28.625V28.625H37ZM37 32H36H37ZM47 26H48H47ZM41.75 24V25H41.7308L41.7115 24.9993L41.75 24ZM37 19.375L36.0003 19.3983L36 19.3866V19.375H37ZM37 16H38H37ZM29 14V15C28.4477 15 28 15.4477 28 16H27H26C26 14.3431 27.3431 13 29 13V14ZM27 16H28V19.375H27H26V16H27ZM27 19.375V20.375H26.999V19.375V18.375H27V19.375ZM26.999 19.375L27.9938 19.273C27.9954 19.2882 27.9963 19.3009 27.9969 19.3092C27.9975 19.317 27.9978 19.3236 27.9979 19.3245C27.9979 19.3256 27.9979 19.3249 27.9979 19.3243C27.9978 19.3235 27.9977 19.3215 27.9975 19.3189C27.9972 19.3139 27.9965 19.3046 27.9954 19.2927L27 19.3887L26.0046 19.4847C26.0033 19.4705 26.0024 19.4588 26.0019 19.4516C26.0017 19.4478 26.0015 19.4447 26.0014 19.4428C26.0013 19.441 26.0012 19.4392 26.0012 19.4392C26.0011 19.4378 26.0013 19.4421 26.0017 19.4477C26.0021 19.4537 26.0029 19.464 26.0042 19.477L26.999 19.375ZM27 19.3887H28V19.8818H27H26V19.3887H27ZM27 19.8818L27.9965 19.9656C27.822 22.0418 25.9745 25 22.1865 25V24V23C24.7227 23 25.8971 21.0641 26.0035 19.7981L27 19.8818ZM22.1865 24V25H19V24V23H22.1865V24ZM19 24V25C18.4477 25 18 25.4477 18 26H17H16C16 24.3431 17.3431 23 19 23V24ZM17 26H18V32H17H16V26H17ZM17 32H18C18 32.5523 18.4477 33 19 33V34V35C17.3431 35 16 33.6569 16 32H17ZM19 34V33H25V34V35H19V34ZM25 34V33C25.5523 33 26 32.5523 26 32H27H28C28 33.6569 26.6569 35 25 35V34ZM27 32H26V26.6992H27H28V32H27ZM27 26.6992L26 26.6918C26.005 26.0247 26.0957 25.4114 26.3348 24.8786C26.5849 24.3213 26.9747 23.9031 27.4811 23.6133C27.9632 23.3374 28.515 23.1981 29.0764 23.1195C29.6405 23.0404 30.2798 23.0144 30.9687 23.005L30.9824 24.0049L30.9962 25.0048C30.3251 25.014 29.7887 25.0392 29.3539 25.1001C28.9163 25.1615 28.6458 25.2511 28.4745 25.3491C28.3274 25.4333 28.2328 25.5341 28.1595 25.6974C28.0752 25.8852 28.0038 26.194 28 26.7066L27 26.6992ZM30.9824 24.0049L30.9786 23.0049L32.2452 23L32.249 24L32.2529 25L30.9863 25.0049L30.9824 24.0049ZM32.249 24V23H32.25V24V25H32.249V24ZM32.25 24L32.2782 23.0004L32.7635 23.0141L32.7354 24.0137L32.7072 25.0133L32.2218 24.9996L32.25 24ZM32.7354 24.0137L32.7465 23.0137C33.2687 23.0195 33.9365 22.9967 34.4904 23.0398C35.0764 23.0854 35.7359 23.2109 36.3274 23.6118C37.5532 24.4426 38 26.0875 38 28.625L37 28.625L36 28.625C36 26.1232 35.5128 25.4757 35.2053 25.2673C35.0303 25.1487 34.7734 25.0679 34.3352 25.0338C33.8647 24.9971 33.4003 25.0211 32.7242 25.0136L32.7354 24.0137ZM37 28.625H38V32H37H36V28.625H37ZM37 32H38C38 32.5523 38.4477 33 39 33V34V35C37.3431 35 36 33.6569 36 32H37ZM39 34V33H45V34V35H39V34ZM45 34V33C45.5523 33 46 32.5523 46 32H47H48C48 33.6569 46.6569 35 45 35V34ZM47 32H46V26H47H48V32H47ZM47 26H46C46 25.4477 45.5523 25 45 25V24V23C46.6569 23 48 24.3431 48 26H47ZM45 24V25H41.75V24V23H45V24ZM41.75 24L41.7115 24.9993C40.8959 24.9679 40.1298 24.9195 39.4556 24.7857C38.7737 24.6504 38.1175 24.4156 37.5618 23.9641C36.4235 23.0395 36.0492 21.5019 36.0003 19.3983L37 19.375L37.9997 19.3517C38.0468 21.3743 38.4225 22.0867 38.8227 22.4117C39.0362 22.5851 39.3464 22.7251 39.8448 22.8239C40.3509 22.9244 40.9791 22.9696 41.7885 23.0007L41.75 24ZM37 19.375H36V16H37H38V19.375H37ZM37 16H36C36 15.4477 35.5523 15 35 15V14V13C36.6569 13 38 14.3431 38 16H37ZM35 14V15H29V14V13H35V14Z" fill="#3D3D3D" fill-opacity="0.1" mask="url(#path-1-inside-1_94_18)"/>
<path d="M9.13526 33.5194C8.95387 33.8178 8.62995 34 8.28073 34H2.77809C1.99822 34 1.51849 33.147 1.92356 32.4806L12.8647 14.4806C13.0461 14.1822 13.37 14 13.7193 14H19.2219C20.0018 14 20.4815 14.853 20.0764 15.5194L9.13526 33.5194Z" fill="#7F22FE"/>
<path d="M8.28027 33.5H2.77832C2.38841 33.5 2.14812 33.0734 2.35059 32.7402L13.292 14.7402C13.3827 14.5911 13.5451 14.5 13.7197 14.5H19.2217C19.6116 14.5 19.8519 14.9266 19.6494 15.2598L8.70801 33.2598C8.61731 33.4089 8.45487 33.5 8.28027 33.5Z" stroke="#3D3D3D" stroke-opacity="0.1"/>
</g>
<defs>
<filter id="filter0_n_94_18" x="0" y="0" width="48" height="48" filterUnits="userSpaceOnUse" color-interpolation-filters="sRGB">
<feFlood flood-opacity="0" result="BackgroundImageFix"/>
<feBlend mode="normal" in="SourceGraphic" in2="BackgroundImageFix" result="shape"/>
<feTurbulence type="fractalNoise" baseFrequency="2 2" stitchTiles="stitch" numOctaves="3" result="noise" seed="2259" />
<feColorMatrix in="noise" type="luminanceToAlpha" result="alphaNoise" />
<feComponentTransfer in="alphaNoise" result="coloredNoise1">
<feFuncA type="discrete" tableValues="0 0 0 0 1 1 1 1 1 1 1 1 1 1 1 1 1 1 1 1 1 1 1 1 1 1 1 1 1 1 1 1 1 1 1 1 1 1 1 1 1 1 1 1 1 0 0 0 0 0 0 0 0 0 0 0 0 0 0 0 0 0 0 0 0 0 0 0 0 0 0 0 0 0 0 0 0 0 0 0 0 0 0 0 0 0 0 0 0 0 0 0 0 0 0 0 0 0 0 0 "/>
</feComponentTransfer>
<feComposite operator="in" in2="shape" in="coloredNoise1" result="noise1Clipped" />
<feFlood flood-color="rgba(0, 0, 0, 0.05)" result="color1Flood" />
<feComposite operator="in" in2="noise1Clipped" in="color1Flood" result="color1" />
<feMerge result="effect1_noise_94_18">
<feMergeNode in="shape" />
<feMergeNode in="color1" />
</feMerge>
</filter>
</defs>
</svg>
