<svg width="40" height="42" viewBox="0 0 40 42" fill="none" xmlns="http://www.w3.org/2000/svg">
<mask id="mask0_71_582" style="mask-type:alpha" maskUnits="userSpaceOnUse" x="0" y="0" width="40" height="42">
<path d="M13.6854 2.58841C13.582 2.18082 13.6441 1.74886 13.8581 1.38686C14.072 1.02487 14.4206 0.762256 14.8275 0.65638C18.2209 -0.218793 21.7808 -0.218793 25.1742 0.65638C25.55 0.752611 25.8778 0.982801 26.0959 1.30369C26.314 1.62457 26.4073 2.01406 26.3585 2.39895C26.3096 2.78384 26.1218 3.13763 25.8305 3.39382C25.5391 3.65002 25.1642 3.79098 24.7762 3.79021C24.6419 3.78951 24.5083 3.77214 24.3783 3.73848C21.5071 2.99714 18.4946 2.99714 15.6234 3.73848C15.4207 3.79045 15.2096 3.80192 15.0024 3.77223C14.7952 3.74253 14.5959 3.67226 14.4159 3.56543C14.2359 3.45861 14.0787 3.31732 13.9534 3.14967C13.828 2.98202 13.737 2.7913 13.6854 2.58841ZM1.16801 17.1135C1.36947 17.1694 1.57998 17.1852 1.78751 17.1597C1.99505 17.1343 2.19554 17.0683 2.37755 16.9654C2.55955 16.8624 2.71949 16.7247 2.84824 16.5599C2.97699 16.3952 3.07202 16.2067 3.1279 16.0052C3.92097 13.1487 5.4273 10.5407 7.50532 8.4263C7.77738 8.12114 7.9216 7.723 7.90808 7.3144C7.89456 6.90579 7.72435 6.51805 7.43272 6.23154C7.14109 5.94502 6.7504 5.7817 6.34162 5.77542C5.93284 5.76914 5.53732 5.92038 5.23702 6.1978C2.78206 8.69607 1.00195 11.777 0.0637039 15.1516C0.00737589 15.3529 -0.00874126 15.5634 0.0162725 15.7709C0.0412862 15.9785 0.106941 16.1791 0.209488 16.3613C0.312034 16.5435 0.449464 16.7037 0.613928 16.8327C0.778392 16.9618 0.966669 17.0572 1.16801 17.1135ZM24.3783 37.6515C21.5071 38.3929 18.4946 38.3929 15.6234 37.6515C15.2172 37.5532 14.7886 37.6187 14.4302 37.8337C14.0718 38.0487 13.8123 38.396 13.7078 38.8007C13.6033 39.2054 13.6622 39.6349 13.8717 39.9966C14.0812 40.3582 14.4245 40.623 14.8275 40.7337C18.2209 41.6088 21.7808 41.6088 25.1742 40.7337C25.5772 40.623 25.9205 40.3582 26.13 39.9966C26.3395 39.6349 26.3984 39.2054 26.2939 38.8007C26.1894 38.396 25.9299 38.0487 25.5715 37.8337C25.2131 37.6187 24.7845 37.5532 24.3783 37.6515ZM36.8738 16.0092C36.9868 16.416 37.2567 16.7614 37.6242 16.9692C37.9918 17.1771 38.4268 17.2304 38.8337 17.1175C39.2406 17.0045 39.5859 16.7346 39.7938 16.3671C40.0016 15.9995 40.0549 15.5644 39.942 15.1576C39.0031 11.7833 37.2231 8.70246 34.7687 6.20376C34.6236 6.04883 34.449 5.92447 34.2552 5.838C34.0613 5.75154 33.8521 5.70471 33.6399 5.70029C33.4277 5.69586 33.2168 5.73392 33.0195 5.81222C32.8222 5.89053 32.6426 6.0075 32.4912 6.15626C32.3398 6.30501 32.2196 6.48254 32.1378 6.67841C32.0561 6.87428 32.0143 7.08453 32.015 7.29678C32.0156 7.50903 32.0587 7.71901 32.1418 7.91436C32.2248 8.1097 32.346 8.28647 32.4984 8.43426C34.5726 10.5493 36.0772 13.1554 36.8718 16.0092H36.8738ZM39.946 26.2344C38.8929 30.0311 36.7745 33.4469 33.8415 36.0777C33.66 36.2414 33.4434 36.3612 33.2082 36.4277C32.9731 36.4942 32.7257 36.5057 32.4854 36.4613C32.2451 36.4168 32.0183 36.3177 31.8225 36.1714C31.6266 36.0252 31.4671 35.8358 31.3563 35.618C30.2918 33.5208 28.6674 31.7593 26.663 30.5289C24.6587 29.2985 22.3528 28.6471 20.0009 28.6471C17.649 28.6471 15.343 29.2985 13.3387 30.5289C11.3343 31.7593 9.70988 33.5208 8.64544 35.618C8.53471 35.8357 8.3754 36.0249 8.17985 36.1711C7.98429 36.3173 7.75772 36.4165 7.51767 36.4611C7.27761 36.5058 7.03051 36.4946 6.79548 36.4284C6.56045 36.3623 6.34378 36.2429 6.16225 36.0797C3.22906 33.4473 1.11077 30.0303 0.0577349 26.2325C-0.0549313 25.8256 -0.00135666 25.3906 0.206673 25.0233C0.414703 24.6559 0.760148 24.3862 1.16701 24.2736C1.57388 24.1609 2.00884 24.2145 2.3762 24.4225C2.74356 24.6305 3.01324 24.976 3.12591 25.3828C3.83794 27.9552 5.13136 30.3297 6.90641 32.323C8.68246 29.747 11.182 27.755 14.0894 26.5986C12.5293 25.3705 11.3907 23.6867 10.832 21.7815C10.2734 19.8762 10.3224 17.8442 10.9722 15.9681C11.622 14.092 12.8404 12.4651 14.4579 11.3136C16.0753 10.1621 18.0114 9.54332 19.9969 9.54332C21.9823 9.54332 23.9185 10.1621 25.5359 11.3136C27.1534 12.4651 28.3717 14.092 29.0216 15.9681C29.6714 17.8442 29.7204 19.8762 29.1617 21.7815C28.6031 23.6867 27.4645 25.3705 25.9044 26.5986C28.8118 27.755 31.3113 29.747 33.0874 32.323C34.8624 30.3297 36.1558 27.9552 36.8679 25.3828C36.9238 25.1814 37.0188 24.9929 37.1476 24.8282C37.2763 24.6635 37.4363 24.5257 37.6183 24.4228C37.8003 24.3199 38.0007 24.2538 38.2083 24.2284C38.4158 24.2029 38.6263 24.2186 38.8277 24.2746C39.0292 24.3305 39.2177 24.4255 39.3824 24.5543C39.5471 24.683 39.6849 24.843 39.7878 25.025C39.8907 25.207 39.9568 25.4074 39.9822 25.615C40.0076 25.8225 39.9919 26.033 39.936 26.2344H39.946ZM20.0009 25.4704C21.2602 25.4704 22.4912 25.097 23.5383 24.3973C24.5853 23.6977 25.4014 22.7033 25.8833 21.5398C26.3653 20.3764 26.4914 19.0962 26.2457 17.8611C26 16.6259 25.3936 15.4914 24.5031 14.601C23.6127 13.7105 22.4781 13.1041 21.243 12.8584C20.0079 12.6127 18.7277 12.7388 17.5643 13.2207C16.4008 13.7027 15.4064 14.5187 14.7068 15.5658C14.0071 16.6129 13.6337 17.8439 13.6337 19.1032C13.6337 20.7919 14.3045 22.4114 15.4986 23.6055C16.6927 24.7996 18.3122 25.4704 20.0009 25.4704Z" fill="white"/>
</mask>
<g mask="url(#mask0_71_582)">
<g filter="url(#filter0_f_71_582)">
<ellipse cx="19.1017" cy="19.7155" rx="35.754" ry="35.2642" fill="#7E22FB"/>
</g>
<g filter="url(#filter1_f_71_582)">
<ellipse cx="18.6118" cy="19.2258" rx="20.5708" ry="21.0606" fill="#9752F7"/>
</g>
<g filter="url(#filter2_f_71_582)">
<circle cx="19.8347" cy="19.7155" r="9.79562" fill="white"/>
</g>
<g style="mix-blend-mode:overlay">
<path d="M13.6854 2.58841C13.582 2.18082 13.6441 1.74886 13.8581 1.38686C14.072 1.02487 14.4206 0.762256 14.8275 0.65638C18.2209 -0.218793 21.7808 -0.218793 25.1742 0.65638C25.55 0.752611 25.8778 0.982801 26.0959 1.30369C26.314 1.62457 26.4073 2.01406 26.3585 2.39895C26.3096 2.78384 26.1218 3.13763 25.8305 3.39382C25.5391 3.65002 25.1642 3.79098 24.7762 3.79021C24.6419 3.78951 24.5083 3.77214 24.3783 3.73848C21.5071 2.99714 18.4946 2.99714 15.6234 3.73848C15.4207 3.79045 15.2096 3.80192 15.0024 3.77223C14.7952 3.74253 14.5959 3.67226 14.4159 3.56543C14.2359 3.45861 14.0787 3.31732 13.9534 3.14967C13.828 2.98202 13.737 2.7913 13.6854 2.58841ZM1.16801 17.1135C1.36947 17.1694 1.57998 17.1852 1.78751 17.1597C1.99505 17.1343 2.19554 17.0683 2.37755 16.9654C2.55955 16.8624 2.71949 16.7247 2.84824 16.5599C2.97699 16.3952 3.07202 16.2067 3.1279 16.0052C3.92097 13.1487 5.4273 10.5407 7.50532 8.4263C7.77738 8.12114 7.9216 7.723 7.90808 7.3144C7.89456 6.90579 7.72435 6.51805 7.43272 6.23154C7.14109 5.94502 6.7504 5.7817 6.34162 5.77542C5.93284 5.76914 5.53732 5.92038 5.23702 6.1978C2.78206 8.69607 1.00195 11.777 0.0637039 15.1516C0.00737589 15.3529 -0.00874126 15.5634 0.0162725 15.7709C0.0412862 15.9785 0.106941 16.1791 0.209488 16.3613C0.312034 16.5435 0.449464 16.7037 0.613928 16.8327C0.778392 16.9618 0.966669 17.0572 1.16801 17.1135ZM24.3783 37.6515C21.5071 38.3929 18.4946 38.3929 15.6234 37.6515C15.2172 37.5532 14.7886 37.6187 14.4302 37.8337C14.0718 38.0487 13.8123 38.396 13.7078 38.8007C13.6033 39.2054 13.6622 39.6349 13.8717 39.9966C14.0812 40.3582 14.4245 40.623 14.8275 40.7337C18.2209 41.6088 21.7808 41.6088 25.1742 40.7337C25.5772 40.623 25.9205 40.3582 26.13 39.9966C26.3395 39.6349 26.3984 39.2054 26.2939 38.8007C26.1894 38.396 25.9299 38.0487 25.5715 37.8337C25.2131 37.6187 24.7845 37.5532 24.3783 37.6515ZM36.8738 16.0092C36.9868 16.416 37.2567 16.7614 37.6242 16.9692C37.9918 17.1771 38.4268 17.2304 38.8337 17.1175C39.2406 17.0045 39.5859 16.7346 39.7938 16.3671C40.0016 15.9995 40.0549 15.5644 39.942 15.1576C39.0031 11.7833 37.2231 8.70246 34.7687 6.20376C34.6236 6.04883 34.449 5.92447 34.2552 5.838C34.0613 5.75154 33.8521 5.70471 33.6399 5.70029C33.4277 5.69586 33.2168 5.73392 33.0195 5.81222C32.8222 5.89053 32.6426 6.0075 32.4912 6.15626C32.3398 6.30501 32.2196 6.48254 32.1378 6.67841C32.0561 6.87428 32.0143 7.08453 32.015 7.29678C32.0156 7.50903 32.0587 7.71901 32.1418 7.91436C32.2248 8.1097 32.346 8.28647 32.4984 8.43426C34.5726 10.5493 36.0772 13.1554 36.8718 16.0092H36.8738ZM39.946 26.2344C38.8929 30.0311 36.7745 33.4469 33.8415 36.0777C33.66 36.2414 33.4434 36.3612 33.2082 36.4277C32.9731 36.4942 32.7257 36.5057 32.4854 36.4613C32.2451 36.4168 32.0183 36.3177 31.8225 36.1714C31.6266 36.0252 31.4671 35.8358 31.3563 35.618C30.2918 33.5208 28.6674 31.7593 26.663 30.5289C24.6587 29.2985 22.3528 28.6471 20.0009 28.6471C17.649 28.6471 15.343 29.2985 13.3387 30.5289C11.3343 31.7593 9.70988 33.5208 8.64544 35.618C8.53471 35.8357 8.3754 36.0249 8.17985 36.1711C7.98429 36.3173 7.75772 36.4165 7.51767 36.4611C7.27761 36.5058 7.03051 36.4946 6.79548 36.4284C6.56045 36.3623 6.34378 36.2429 6.16225 36.0797C3.22906 33.4473 1.11077 30.0303 0.0577349 26.2325C-0.0549313 25.8256 -0.00135666 25.3906 0.206673 25.0233C0.414703 24.6559 0.760148 24.3862 1.16701 24.2736C1.57388 24.1609 2.00884 24.2145 2.3762 24.4225C2.74356 24.6305 3.01324 24.976 3.12591 25.3828C3.83794 27.9552 5.13136 30.3297 6.90641 32.323C8.68246 29.747 11.182 27.755 14.0894 26.5986C12.5293 25.3705 11.3907 23.6867 10.832 21.7815C10.2734 19.8762 10.3224 17.8442 10.9722 15.9681C11.622 14.092 12.8404 12.4651 14.4579 11.3136C16.0753 10.1621 18.0114 9.54332 19.9969 9.54332C21.9823 9.54332 23.9185 10.1621 25.5359 11.3136C27.1534 12.4651 28.3717 14.092 29.0216 15.9681C29.6714 17.8442 29.7204 19.8762 29.1617 21.7815C28.6031 23.6867 27.4645 25.3705 25.9044 26.5986C28.8118 27.755 31.3113 29.747 33.0874 32.323C34.8624 30.3297 36.1558 27.9552 36.8679 25.3828C36.9238 25.1814 37.0188 24.9929 37.1476 24.8282C37.2763 24.6635 37.4363 24.5257 37.6183 24.4228C37.8003 24.3199 38.0007 24.2538 38.2083 24.2284C38.4158 24.2029 38.6263 24.2186 38.8277 24.2746C39.0292 24.3305 39.2177 24.4255 39.3824 24.5543C39.5471 24.683 39.6849 24.843 39.7878 25.025C39.8907 25.207 39.9568 25.4074 39.9822 25.615C40.0076 25.8225 39.9919 26.033 39.936 26.2344H39.946ZM20.0009 25.4704C21.2602 25.4704 22.4912 25.097 23.5383 24.3973C24.5853 23.6977 25.4014 22.7033 25.8833 21.5398C26.3653 20.3764 26.4914 19.0962 26.2457 17.8611C26 16.6259 25.3936 15.4914 24.5031 14.601C23.6127 13.7105 22.4781 13.1041 21.243 12.8584C20.0079 12.6127 18.7277 12.7388 17.5643 13.2207C16.4008 13.7027 15.4064 14.5187 14.7068 15.5658C14.0071 16.6129 13.6337 17.8439 13.6337 19.1032C13.6337 20.7919 14.3045 22.4114 15.4986 23.6055C16.6927 24.7996 18.3122 25.4704 20.0009 25.4704Z" fill="white"/>
</g>
</g>
<defs>
<filter id="filter0_f_71_582" x="-110.652" y="-109.549" width="259.508" height="258.528" filterUnits="userSpaceOnUse" color-interpolation-filters="sRGB">
<feFlood flood-opacity="0" result="BackgroundImageFix"/>
<feBlend mode="normal" in="SourceGraphic" in2="BackgroundImageFix" result="shape"/>
<feGaussianBlur stdDeviation="47" result="effect1_foregroundBlur_71_582"/>
</filter>
<filter id="filter1_f_71_582" x="-25.959" y="-25.8348" width="89.1416" height="90.1212" filterUnits="userSpaceOnUse" color-interpolation-filters="sRGB">
<feFlood flood-opacity="0" result="BackgroundImageFix"/>
<feBlend mode="normal" in="SourceGraphic" in2="BackgroundImageFix" result="shape"/>
<feGaussianBlur stdDeviation="12" result="effect1_foregroundBlur_71_582"/>
</filter>
<filter id="filter2_f_71_582" x="3.03906" y="2.91992" width="33.5908" height="33.5913" filterUnits="userSpaceOnUse" color-interpolation-filters="sRGB">
<feFlood flood-opacity="0" result="BackgroundImageFix"/>
<feBlend mode="normal" in="SourceGraphic" in2="BackgroundImageFix" result="shape"/>
<feGaussianBlur stdDeviation="3.5" result="effect1_foregroundBlur_71_582"/>
</filter>
</defs>
</svg>
