<svg width="46" height="46" viewBox="0 0 46 46" fill="none" xmlns="http://www.w3.org/2000/svg">
<mask id="mask0_71_567" style="mask-type:alpha" maskUnits="userSpaceOnUse" x="4" y="4" width="38" height="38">
<path d="M10.7083 19.1688L4.45826 12.9188C4.31298 12.7737 4.19774 12.6014 4.1191 12.4117C4.04047 12.222 4 12.0187 4 11.8134C4 11.608 4.04047 11.4047 4.1191 11.215C4.19774 11.0253 4.31298 10.853 4.45826 10.7079L10.7083 4.4579C11.0014 4.16471 11.3991 4 11.8137 4C12.2284 4 12.626 4.16471 12.9192 4.4579C13.2124 4.75109 13.3771 5.14874 13.3771 5.56337C13.3771 5.978 13.2124 6.37565 12.9192 6.66884L7.77271 11.8134L12.9192 16.9579C13.2124 17.2511 13.3771 17.6487 13.3771 18.0634C13.3771 18.478 13.2124 18.8756 12.9192 19.1688C12.626 19.462 12.2284 19.6267 11.8137 19.6267C11.3991 19.6267 11.0014 19.462 10.7083 19.1688ZM18.5208 19.1688C18.6659 19.3141 18.8382 19.4294 19.0279 19.508C19.2176 19.5866 19.4209 19.6271 19.6262 19.6271C19.8316 19.6271 20.0349 19.5866 20.2246 19.508C20.4143 19.4294 20.5866 19.3141 20.7317 19.1688L26.9817 12.9188C27.127 12.7737 27.2422 12.6014 27.3209 12.4117C27.3995 12.222 27.44 12.0187 27.44 11.8134C27.44 11.608 27.3995 11.4047 27.3209 11.215C27.2422 11.0253 27.127 10.853 26.9817 10.7079L20.7317 4.4579C20.4385 4.16471 20.0409 4 19.6262 4C19.2116 4 18.8139 4.16471 18.5208 4.4579C18.2276 4.75109 18.0629 5.14874 18.0629 5.56337C18.0629 5.978 18.2276 6.37565 18.5208 6.66884L23.6672 11.8134L18.5208 16.9579C18.3755 17.103 18.2602 17.2753 18.1816 17.465C18.103 17.6547 18.0625 17.858 18.0625 18.0634C18.0625 18.2687 18.103 18.472 18.1816 18.6617C18.2602 18.8514 18.3755 19.0237 18.5208 19.1688ZM38.3762 7.12587H33.6887C33.2743 7.12587 32.8769 7.29049 32.5839 7.58351C32.2908 7.87654 32.1262 8.27397 32.1262 8.68837C32.1262 9.10277 32.2908 9.5002 32.5839 9.79322C32.8769 10.0862 33.2743 10.2509 33.6887 10.2509H38.3762V38.3759H10.2512V25.8759C10.2512 25.4615 10.0866 25.064 9.79358 24.771C9.50056 24.478 9.10313 24.3134 8.68873 24.3134C8.27433 24.3134 7.8769 24.478 7.58387 24.771C7.29085 25.064 7.12623 25.4615 7.12623 25.8759V38.3759C7.12623 39.2047 7.45547 39.9995 8.04152 40.5856C8.62757 41.1716 9.42243 41.5009 10.2512 41.5009H38.3762C39.205 41.5009 39.9999 41.1716 40.5859 40.5856C41.172 39.9995 41.5012 39.2047 41.5012 38.3759V10.2509C41.5012 9.42207 41.172 8.62721 40.5859 8.04116C39.9999 7.45511 39.205 7.12587 38.3762 7.12587Z" fill="white"/>
</mask>
<g mask="url(#mask0_71_567)">
<g filter="url(#filter0_f_71_567)">
<circle cx="23.3135" cy="24.3134" r="40" fill="#FEBC2E"/>
</g>
<g filter="url(#filter1_f_71_567)">
<circle cx="23.8846" cy="25.4562" r="23.4286" fill="#FF9900"/>
</g>
<g filter="url(#filter2_f_71_567)">
<circle cx="23.8864" cy="25.4563" r="14.8571" fill="white"/>
</g>
<g style="mix-blend-mode:overlay" filter="url(#filter3_d_71_567)">
<path d="M10.7083 19.1688L4.45826 12.9188C4.31298 12.7737 4.19774 12.6014 4.1191 12.4117C4.04047 12.222 4 12.0187 4 11.8134C4 11.608 4.04047 11.4047 4.1191 11.215C4.19774 11.0253 4.31298 10.853 4.45826 10.7079L10.7083 4.4579C11.0014 4.16471 11.3991 4 11.8137 4C12.2284 4 12.626 4.16471 12.9192 4.4579C13.2124 4.75109 13.3771 5.14874 13.3771 5.56337C13.3771 5.978 13.2124 6.37565 12.9192 6.66884L7.77271 11.8134L12.9192 16.9579C13.2124 17.2511 13.3771 17.6487 13.3771 18.0634C13.3771 18.478 13.2124 18.8756 12.9192 19.1688C12.626 19.462 12.2284 19.6267 11.8137 19.6267C11.3991 19.6267 11.0014 19.462 10.7083 19.1688ZM18.5208 19.1688C18.6659 19.3141 18.8382 19.4294 19.0279 19.508C19.2176 19.5866 19.4209 19.6271 19.6262 19.6271C19.8316 19.6271 20.0349 19.5866 20.2246 19.508C20.4143 19.4294 20.5866 19.3141 20.7317 19.1688L26.9817 12.9188C27.127 12.7737 27.2422 12.6014 27.3209 12.4117C27.3995 12.222 27.44 12.0187 27.44 11.8134C27.44 11.608 27.3995 11.4047 27.3209 11.215C27.2422 11.0253 27.127 10.853 26.9817 10.7079L20.7317 4.4579C20.4385 4.16471 20.0409 4 19.6262 4C19.2116 4 18.8139 4.16471 18.5208 4.4579C18.2276 4.75109 18.0629 5.14874 18.0629 5.56337C18.0629 5.978 18.2276 6.37565 18.5208 6.66884L23.6672 11.8134L18.5208 16.9579C18.3755 17.103 18.2602 17.2753 18.1816 17.465C18.103 17.6547 18.0625 17.858 18.0625 18.0634C18.0625 18.2687 18.103 18.472 18.1816 18.6617C18.2602 18.8514 18.3755 19.0237 18.5208 19.1688ZM38.3762 7.12587H33.6887C33.2743 7.12587 32.8769 7.29049 32.5839 7.58351C32.2908 7.87654 32.1262 8.27397 32.1262 8.68837C32.1262 9.10277 32.2908 9.5002 32.5839 9.79322C32.8769 10.0862 33.2743 10.2509 33.6887 10.2509H38.3762V38.3759H10.2512V25.8759C10.2512 25.4615 10.0866 25.064 9.79358 24.771C9.50056 24.478 9.10313 24.3134 8.68873 24.3134C8.27433 24.3134 7.8769 24.478 7.58387 24.771C7.29085 25.064 7.12623 25.4615 7.12623 25.8759V38.3759C7.12623 39.2047 7.45547 39.9995 8.04152 40.5856C8.62757 41.1716 9.42243 41.5009 10.2512 41.5009H38.3762C39.205 41.5009 39.9999 41.1716 40.5859 40.5856C41.172 39.9995 41.5012 39.2047 41.5012 38.3759V10.2509C41.5012 9.42207 41.172 8.62721 40.5859 8.04116C39.9999 7.45511 39.205 7.12587 38.3762 7.12587Z" fill="white"/>
</g>
</g>
<defs>
<filter id="filter0_f_71_567" x="-110.687" y="-109.687" width="268" height="268" filterUnits="userSpaceOnUse" color-interpolation-filters="sRGB">
<feFlood flood-opacity="0" result="BackgroundImageFix"/>
<feBlend mode="normal" in="SourceGraphic" in2="BackgroundImageFix" result="shape"/>
<feGaussianBlur stdDeviation="47" result="effect1_foregroundBlur_71_567"/>
</filter>
<filter id="filter1_f_71_567" x="-23.5439" y="-21.9724" width="94.8574" height="94.8572" filterUnits="userSpaceOnUse" color-interpolation-filters="sRGB">
<feFlood flood-opacity="0" result="BackgroundImageFix"/>
<feBlend mode="normal" in="SourceGraphic" in2="BackgroundImageFix" result="shape"/>
<feGaussianBlur stdDeviation="12" result="effect1_foregroundBlur_71_567"/>
</filter>
<filter id="filter2_f_71_567" x="2.0293" y="3.59912" width="43.7139" height="43.7142" filterUnits="userSpaceOnUse" color-interpolation-filters="sRGB">
<feFlood flood-opacity="0" result="BackgroundImageFix"/>
<feBlend mode="normal" in="SourceGraphic" in2="BackgroundImageFix" result="shape"/>
<feGaussianBlur stdDeviation="3.5" result="effect1_foregroundBlur_71_567"/>
</filter>
<filter id="filter3_d_71_567" x="-1" y="-1" width="47.501" height="47.5009" filterUnits="userSpaceOnUse" color-interpolation-filters="sRGB">
<feFlood flood-opacity="0" result="BackgroundImageFix"/>
<feColorMatrix in="SourceAlpha" type="matrix" values="0 0 0 0 0 0 0 0 0 0 0 0 0 0 0 0 0 0 127 0" result="hardAlpha"/>
<feOffset/>
<feGaussianBlur stdDeviation="2.5"/>
<feComposite in2="hardAlpha" operator="out"/>
<feColorMatrix type="matrix" values="0 0 0 0 1 0 0 0 0 0.6 0 0 0 0 0 0 0 0 1 0"/>
<feBlend mode="normal" in2="BackgroundImageFix" result="effect1_dropShadow_71_567"/>
<feBlend mode="normal" in="SourceGraphic" in2="effect1_dropShadow_71_567" result="shape"/>
</filter>
</defs>
</svg>
