<svg width="44" height="48" viewBox="0 0 44 48" fill="none" xmlns="http://www.w3.org/2000/svg">
<mask id="mask0_71_573" style="mask-type:alpha" maskUnits="userSpaceOnUse" x="0" y="4" width="40" height="40">
<path d="M34.1891 23.9984C39.3242 16.7884 41.9428 9.33684 38.3013 5.69541C34.6599 2.05399 27.2083 4.67256 19.9984 9.80764C12.7884 4.67256 5.33684 2.05399 1.69541 5.69541C-1.94601 9.33684 0.672564 16.7884 5.80764 23.9984C0.672564 31.2083 -1.94601 38.6599 1.69541 42.3013C2.86825 43.4742 4.43482 43.9971 6.2597 43.9971C10.1094 43.9971 15.1091 41.6701 20.0088 38.1891C24.8876 41.6701 29.8873 43.9971 33.7475 43.9971C35.5723 43.9971 37.141 43.4721 38.3118 42.3013C41.9428 38.6599 39.3242 31.2083 34.1891 23.9984ZM35.9452 8.05151C37.5368 9.64307 36.4619 14.8011 32.0872 21.234C30.7032 19.5207 29.2297 17.8817 27.6729 16.3239C26.1148 14.7692 24.4759 13.2978 22.7628 11.9158C29.1957 7.54112 34.3537 6.45786 35.9452 8.05151ZM30.0581 23.9984C28.584 25.8632 27.0008 27.6391 25.3168 29.3168C23.6391 31.0008 21.8632 32.584 19.9984 34.0581C18.1336 32.584 16.3577 31.0008 14.68 29.3168C12.996 27.6391 11.4127 25.8632 9.93862 23.9984C12.8961 20.2715 16.2715 16.8961 19.9984 13.9386C21.8632 15.4127 23.6391 16.996 25.3168 18.68C27.0008 20.3577 28.584 22.1336 30.0581 23.9984ZM4.05151 8.05151C4.50981 7.59112 5.26601 7.35364 6.26386 7.35364C8.7262 7.35364 12.6572 8.79104 17.2319 11.9158C15.5204 13.2989 13.8822 14.7703 12.3239 16.3239C10.7692 17.8819 9.29779 19.5209 7.91584 21.234C3.54112 14.8011 2.45995 9.64307 4.05151 8.05151ZM4.05151 39.9452C2.45995 38.3537 3.54112 33.1957 7.91584 26.7628C9.29982 28.476 10.7733 30.115 12.3301 31.6729C13.8871 33.2263 15.524 34.6977 17.234 36.0809C10.8011 40.4556 5.64307 41.5389 4.05151 39.9452ZM35.9452 39.9452C34.3537 41.5389 29.1957 40.4619 22.7628 36.0872C24.4751 34.7021 26.114 33.2286 27.6729 31.6729C29.2276 30.1148 30.699 28.4759 32.0809 26.7628C36.4556 33.1957 37.5368 38.3537 35.9452 39.9452ZM22.4982 23.9984C22.4982 24.4928 22.3516 24.9761 22.0769 25.3872C21.8022 25.7983 21.4118 26.1187 20.955 26.3079C20.4982 26.4971 19.9956 26.5466 19.5107 26.4502C19.0258 26.3537 18.5803 26.1156 18.2307 25.766C17.8811 25.4164 17.643 24.971 17.5466 24.4861C17.4501 24.0011 17.4996 23.4985 17.6888 23.0417C17.878 22.5849 18.1984 22.1945 18.6095 21.9198C19.0206 21.6452 19.504 21.4985 19.9984 21.4985C20.6614 21.4985 21.2972 21.7619 21.766 22.2307C22.2348 22.6995 22.4982 23.3354 22.4982 23.9984Z" fill="white"/>
</mask>
<g mask="url(#mask0_71_573)">
<g filter="url(#filter0_f_71_573)">
<circle cx="18.7322" cy="24.5988" r="42.6639" fill="#1A44FF"/>
</g>
<g filter="url(#filter1_f_71_573)">
<circle cx="19.3414" cy="25.8177" r="24.9888" fill="#5876FF"/>
</g>
<g filter="url(#filter2_f_71_573)">
<circle cx="19.5537" cy="23.9986" r="10.666" fill="white"/>
</g>
<g style="mix-blend-mode:overlay" filter="url(#filter3_d_71_573)">
<path d="M34.1891 23.9984C39.3242 16.7884 41.9428 9.33684 38.3013 5.69541C34.6599 2.05399 27.2083 4.67256 19.9984 9.80764C12.7884 4.67256 5.33684 2.05399 1.69541 5.69541C-1.94601 9.33684 0.672564 16.7884 5.80764 23.9984C0.672564 31.2083 -1.94601 38.6599 1.69541 42.3013C2.86825 43.4742 4.43482 43.9971 6.2597 43.9971C10.1094 43.9971 15.1091 41.6701 20.0088 38.1891C24.8876 41.6701 29.8873 43.9971 33.7475 43.9971C35.5723 43.9971 37.141 43.4721 38.3118 42.3013C41.9428 38.6599 39.3242 31.2083 34.1891 23.9984ZM35.9452 8.05151C37.5368 9.64307 36.4619 14.8011 32.0872 21.234C30.7032 19.5207 29.2297 17.8817 27.6729 16.3239C26.1148 14.7692 24.4759 13.2978 22.7628 11.9158C29.1957 7.54112 34.3537 6.45786 35.9452 8.05151ZM30.0581 23.9984C28.584 25.8632 27.0008 27.6391 25.3168 29.3168C23.6391 31.0008 21.8632 32.584 19.9984 34.0581C18.1336 32.584 16.3577 31.0008 14.68 29.3168C12.996 27.6391 11.4127 25.8632 9.93862 23.9984C12.8961 20.2715 16.2715 16.8961 19.9984 13.9386C21.8632 15.4127 23.6391 16.996 25.3168 18.68C27.0008 20.3577 28.584 22.1336 30.0581 23.9984ZM4.05151 8.05151C4.50981 7.59112 5.26601 7.35364 6.26386 7.35364C8.7262 7.35364 12.6572 8.79104 17.2319 11.9158C15.5204 13.2989 13.8822 14.7703 12.3239 16.3239C10.7692 17.8819 9.29779 19.5209 7.91584 21.234C3.54112 14.8011 2.45995 9.64307 4.05151 8.05151ZM4.05151 39.9452C2.45995 38.3537 3.54112 33.1957 7.91584 26.7628C9.29982 28.476 10.7733 30.115 12.3301 31.6729C13.8871 33.2263 15.524 34.6977 17.234 36.0809C10.8011 40.4556 5.64307 41.5389 4.05151 39.9452ZM35.9452 39.9452C34.3537 41.5389 29.1957 40.4619 22.7628 36.0872C24.4751 34.7021 26.114 33.2286 27.6729 31.6729C29.2276 30.1148 30.699 28.4759 32.0809 26.7628C36.4556 33.1957 37.5368 38.3537 35.9452 39.9452ZM22.4982 23.9984C22.4982 24.4928 22.3516 24.9761 22.0769 25.3872C21.8022 25.7983 21.4118 26.1187 20.955 26.3079C20.4982 26.4971 19.9956 26.5466 19.5107 26.4502C19.0258 26.3537 18.5803 26.1156 18.2307 25.766C17.8811 25.4164 17.643 24.971 17.5466 24.4861C17.4501 24.0011 17.4996 23.4985 17.6888 23.0417C17.878 22.5849 18.1984 22.1945 18.6095 21.9198C19.0206 21.6452 19.504 21.4985 19.9984 21.4985C20.6614 21.4985 21.2972 21.7619 21.766 22.2307C22.2348 22.6995 22.4982 23.3354 22.4982 23.9984Z" fill="white"/>
</g>
</g>
<defs>
<filter id="filter0_f_71_573" x="-117.932" y="-112.065" width="273.328" height="273.328" filterUnits="userSpaceOnUse" color-interpolation-filters="sRGB">
<feFlood flood-opacity="0" result="BackgroundImageFix"/>
<feBlend mode="normal" in="SourceGraphic" in2="BackgroundImageFix" result="shape"/>
<feGaussianBlur stdDeviation="47" result="effect1_foregroundBlur_71_573"/>
</filter>
<filter id="filter1_f_71_573" x="-29.6475" y="-23.1711" width="97.9775" height="97.9777" filterUnits="userSpaceOnUse" color-interpolation-filters="sRGB">
<feFlood flood-opacity="0" result="BackgroundImageFix"/>
<feBlend mode="normal" in="SourceGraphic" in2="BackgroundImageFix" result="shape"/>
<feGaussianBlur stdDeviation="12" result="effect1_foregroundBlur_71_573"/>
</filter>
<filter id="filter2_f_71_573" x="1.8877" y="6.33264" width="35.332" height="35.3319" filterUnits="userSpaceOnUse" color-interpolation-filters="sRGB">
<feFlood flood-opacity="0" result="BackgroundImageFix"/>
<feBlend mode="normal" in="SourceGraphic" in2="BackgroundImageFix" result="shape"/>
<feGaussianBlur stdDeviation="3.5" result="effect1_foregroundBlur_71_573"/>
</filter>
<filter id="filter3_d_71_573" x="-4" y="0" width="48" height="47.9971" filterUnits="userSpaceOnUse" color-interpolation-filters="sRGB">
<feFlood flood-opacity="0" result="BackgroundImageFix"/>
<feColorMatrix in="SourceAlpha" type="matrix" values="0 0 0 0 0 0 0 0 0 0 0 0 0 0 0 0 0 0 127 0" result="hardAlpha"/>
<feOffset/>
<feGaussianBlur stdDeviation="2"/>
<feComposite in2="hardAlpha" operator="out"/>
<feColorMatrix type="matrix" values="0 0 0 0 0.343168 0 0 0 0 0.46125 0 0 0 0 1 0 0 0 1 0"/>
<feBlend mode="normal" in2="BackgroundImageFix" result="effect1_dropShadow_71_573"/>
<feBlend mode="normal" in="SourceGraphic" in2="effect1_dropShadow_71_573" result="shape"/>
</filter>
</defs>
</svg>
