<svg width="12" height="12" viewBox="0 0 12 12" fill="none" xmlns="http://www.w3.org/2000/svg">
<path d="M11.7504 11.1865C10.497 10.5973 9.77813 9.33443 9.77813 7.71592V6.79045C9.7786 6.61875 9.72536 6.45091 9.62535 6.30884C9.52535 6.16676 9.38323 6.05706 9.21755 5.99405L7.83361 5.46597C7.72473 5.42398 7.63748 5.34222 7.59086 5.23849C7.54424 5.13476 7.54203 5.01747 7.58472 4.91218L8.7692 2.07363C8.84959 1.88733 8.89015 1.6873 8.88845 1.48552C8.88675 1.28375 8.84282 1.08438 8.75931 0.899363C8.67579 0.71434 8.5544 0.547469 8.40241 0.408741C8.25041 0.270013 8.07093 0.162282 7.87473 0.0920002C7.49257 -0.0429839 7.07087 -0.0289788 6.69925 0.131039C6.32764 0.291056 6.0354 0.584471 5.88466 0.948922C5.88444 0.951059 5.88444 0.953212 5.88466 0.955349L4.71684 3.80568C4.67341 3.91113 4.58836 3.99567 4.48035 4.04075C4.37235 4.08583 4.2502 4.08778 4.14071 4.04616L2.72844 3.49184C2.56561 3.42823 2.3868 3.41291 2.21488 3.44783C2.04297 3.48275 1.88577 3.56632 1.76341 3.68786C0.593365 4.84738 1.13616e-05 6.20239 1.13616e-05 7.71539C-0.00306344 9.26369 0.618072 10.7526 1.73229 11.8677C1.77404 11.9098 1.82424 11.9432 1.87983 11.966C1.93543 11.9887 1.99525 12.0003 2.05564 12H11.556C11.6564 11.9999 11.7539 11.967 11.8325 11.9067C11.911 11.8463 11.9661 11.7621 11.9887 11.6677C12.0112 11.5734 11.9999 11.4744 11.9567 11.387C11.9134 11.2996 11.8407 11.2289 11.7504 11.1865ZM2.39676 4.2877L3.80848 4.83934C3.97143 4.90219 4.14566 4.9334 4.32115 4.9312C4.49665 4.92899 4.66997 4.8934 4.83117 4.82647C4.99237 4.75955 5.13827 4.6626 5.26052 4.5412C5.38276 4.41979 5.47894 4.27631 5.54354 4.119L6.71024 1.28044C6.85247 0.953206 7.23637 0.783964 7.56749 0.90554C7.65191 0.935734 7.72911 0.9821 7.79443 1.04184C7.85976 1.10158 7.91185 1.17346 7.94757 1.25314C7.98329 1.33282 8.0019 1.41864 8.00227 1.50544C8.00264 1.59224 7.98477 1.67822 7.94973 1.75818L6.7608 4.59619C6.63063 4.91276 6.6361 5.26619 6.77599 5.57888C6.91588 5.89156 7.17877 6.13796 7.50694 6.26398L8.88921 6.79045V7.71539C8.88921 7.73306 8.88921 7.75074 8.88921 7.76895L1.76507 5.02198C1.95447 4.76099 2.16574 4.51541 2.39676 4.2877ZM5.06352 11.1431C4.40178 10.5312 3.933 9.75137 3.71125 8.89365C3.68035 8.78517 3.60642 8.69276 3.50544 8.63637C3.40446 8.57998 3.28452 8.56414 3.17153 8.59226C3.05854 8.62039 2.96155 8.69023 2.90152 8.78671C2.84148 8.88318 2.82322 8.99854 2.85067 9.10789C3.04452 9.84576 3.39152 10.5381 3.8707 11.1431H2.24676C1.37016 10.2016 0.886428 8.98047 0.888931 7.71539C0.883495 7.0451 1.03007 6.38175 1.31839 5.77178L8.97421 8.72388C9.14088 9.68791 9.5609 10.517 10.1904 11.1425L5.06352 11.1431Z" fill="white"/>
</svg>
