<svg width="15" height="12" viewBox="0 0 15 12" fill="none" xmlns="http://www.w3.org/2000/svg">
<path d="M3.81993 3.88439L1.28113 6.00001L3.81993 8.11563C3.87183 8.15718 3.91493 8.20866 3.94669 8.26707C3.97846 8.32547 3.99826 8.38963 4.00493 8.45578C4.01161 8.52193 4.00502 8.58875 3.98556 8.65232C3.9661 8.71589 3.93415 8.77495 3.89159 8.82603C3.84903 8.8771 3.79671 8.91918 3.73769 8.9498C3.67868 8.98041 3.61414 8.99895 3.54788 9.00433C3.48161 9.0097 3.41493 9.00181 3.35175 8.9811C3.28857 8.9604 3.23015 8.92731 3.17991 8.88375L0.179854 6.38376C0.12356 6.33683 0.0782703 6.27811 0.0471903 6.21174C0.0161103 6.14537 0 6.07298 0 5.9997C0 5.92641 0.0161103 5.85402 0.0471903 5.78765C0.0782703 5.72128 0.12356 5.66256 0.179854 5.61563L3.17991 3.11564C3.28186 3.03077 3.41334 2.98987 3.54544 3.00194C3.67754 3.01402 3.79943 3.07807 3.8843 3.18001C3.96917 3.28195 4.01007 3.41344 3.998 3.54553C3.98593 3.67763 3.92187 3.79952 3.81993 3.88439ZM14.8201 5.61563L11.8201 3.11564C11.7696 3.07361 11.7113 3.04195 11.6486 3.02244C11.5859 3.00293 11.52 2.99597 11.4546 3.00194C11.3892 3.00792 11.3256 3.02672 11.2674 3.05728C11.2093 3.08783 11.1577 3.12954 11.1157 3.18001C11.0308 3.28195 10.9899 3.41344 11.002 3.54553C11.0141 3.67763 11.0781 3.79952 11.1801 3.88439L13.7189 6.00001L11.1801 8.11563C11.1282 8.15718 11.0851 8.20866 11.0533 8.26707C11.0215 8.32547 11.0017 8.38963 10.9951 8.45578C10.9884 8.52193 10.995 8.58875 11.0144 8.65232C11.0339 8.71589 11.0658 8.77495 11.1084 8.82603C11.151 8.8771 11.2033 8.91918 11.2623 8.9498C11.3213 8.98041 11.3859 8.99895 11.4521 9.00433C11.5184 9.0097 11.5851 9.00181 11.6483 8.9811C11.7114 8.9604 11.7699 8.92731 11.8201 8.88375L14.8201 6.38376C14.8764 6.33683 14.9217 6.27811 14.9528 6.21174C14.9839 6.14537 15 6.07298 15 5.9997C15 5.92641 14.9839 5.85402 14.9528 5.78765C14.9217 5.72128 14.8764 5.66256 14.8201 5.61563ZM9.67067 0.0300165C9.60895 0.00760797 9.54341 -0.00242383 9.47781 0.000493872C9.41222 0.00341158 9.34783 0.0192217 9.28834 0.0470214C9.22885 0.0748211 9.17542 0.114066 9.1311 0.162515C9.08678 0.210964 9.05244 0.267669 9.03003 0.329391L5.02995 11.3294C5.00745 11.3911 4.99734 11.4567 5.00021 11.5224C5.00308 11.5881 5.01887 11.6525 5.04668 11.7121C5.07448 11.7716 5.11376 11.8251 5.16226 11.8695C5.21076 11.9139 5.26753 11.9482 5.32933 11.9706C5.38411 11.9901 5.44182 12 5.49996 12C5.60264 12 5.70284 11.9684 5.78693 11.9095C5.87102 11.8505 5.93493 11.7671 5.96997 11.6706L9.97005 0.670641C9.99246 0.60892 10.0025 0.543389 9.99957 0.477791C9.99666 0.412193 9.98085 0.347812 9.95305 0.288324C9.92524 0.228836 9.886 0.175406 9.83755 0.131086C9.7891 0.0867653 9.73239 0.0524218 9.67067 0.0300165Z" fill="white"/>
</svg>
